# xmcd
#
# Track frame offsets: 
#        150
#        23330
#        44849
#        60594
#        78112
#        96652
#        117723
#        138770
#        155247
#        169692
#        206441
#
# Disc length: 3442 seconds
#
# Revision: 1
# Processed by: cddbd v1.5.2PL0 Copyright (c) Steve Scherf et al.
# Submitted via: ExactAudioCopyFreeDBPlugin 1.0
#
DISCID=940d700b
DTITLE=Jeff Buckley - Sketches For My Sweetheart The Drunk [CD#01)
DYEAR=1998
DGENRE=Rock
TTITLE0=The Sky Is A Landfill
TTITLE1=Everybody Here Wants You
TTITLE2=Opened Once
TTITLE3=Nightmares By The Sea
TTITLE4=Yard Of Blonde Girls
TTITLE5=Witches' Rave
TTITLE6=New Year's Prayer
TTITLE7=Morning Theft
TTITLE8=Vancouver
TTITLE9=You and I
TTITLE10=DATA
EXTD=
EXTT0=
EXTT1=
EXTT2=
EXTT3=
EXTT4=
EXTT5=
EXTT6=
EXTT7=
EXTT8=
EXTT9=
EXTT10=
PLAYORDER=
